<svg width="153" height="188" viewBox="0 0 153 188" fill="none" xmlns="http://www.w3.org/2000/svg">
<rect x="0.438965" y="0.875034" width="152.203" height="187.103" rx="9.69444" fill="#FEF3F0"/>
<path fill-rule="evenodd" clip-rule="evenodd" d="M41.1718 81.2145C41.1718 78.2679 38.7824 75.8785 35.8358 75.8785C32.8892 75.8785 30.4998 78.2679 30.4998 81.2145C30.4998 84.1611 32.8892 86.5506 35.8358 86.5506C38.7824 86.5506 41.1718 84.1611 41.1718 81.2145Z" stroke="#AC6755" stroke-width="2.54479" stroke-linecap="round" stroke-linejoin="round"/>
<path fill-rule="evenodd" clip-rule="evenodd" d="M35.8351 94.2812C49.4842 94.2812 51.1093 90.1917 51.1093 81.3304C51.1093 75.1194 50.2878 71.7959 45.1143 70.3673C44.6392 70.2173 44.1124 69.9316 43.6856 69.4619C42.9963 68.7065 42.4927 66.3867 40.8283 65.6849C39.1639 64.9848 32.4796 65.017 30.842 65.6849C29.2062 66.3546 28.674 68.7065 27.9847 69.4619C27.5579 69.9316 27.0328 70.2173 26.556 70.3673C21.3825 71.7959 20.561 75.1194 20.561 81.3304C20.561 90.1917 22.1861 94.2812 35.8351 94.2812Z" stroke="#AC6755" stroke-width="2.54479" stroke-linecap="round" stroke-linejoin="round"/>
<path d="M44.1685 75.2799H44.1838" stroke="#AC6755" stroke-width="2.54479" stroke-linecap="round" stroke-linejoin="round"/>
<path fill-rule="evenodd" clip-rule="evenodd" d="M132.752 22.1733L135.238 19.6924C135.465 19.4656 135.465 19.098 135.238 18.8712C135.011 18.6445 134.644 18.6445 134.417 18.8712L131.936 21.3579L129.456 18.8712C129.229 18.6445 128.861 18.6445 128.635 18.8712C128.408 19.098 128.408 19.4656 128.635 19.6924L131.121 22.1733L128.635 24.6542C128.525 24.7628 128.464 24.9106 128.464 25.0648C128.464 25.219 128.525 25.3668 128.635 25.4754C128.743 25.5848 128.891 25.6464 129.045 25.6464C129.199 25.6464 129.347 25.5848 129.456 25.4754L131.936 22.9887L134.417 25.4754C134.525 25.5848 134.673 25.6464 134.827 25.6464C134.982 25.6464 135.129 25.5848 135.238 25.4754C135.347 25.3668 135.409 25.219 135.409 25.0648C135.409 24.9106 135.347 24.7628 135.238 24.6542L132.752 22.1733Z" fill="#11243D"/>
<path d="M20.8516 139.162L20.745 137.925L23.027 137.413L21.4701 138.437C21.6834 138.067 21.8682 137.733 22.0246 137.435C22.1953 137.136 22.3446 136.845 22.4725 136.56C22.6147 136.262 22.7356 135.949 22.8351 135.622L26.7381 124.02L28.5083 123.785L32.8378 136.07C32.9658 136.439 33.1151 136.802 33.2857 137.157C33.4706 137.499 33.6341 137.826 33.7762 138.139L32.3686 137.328L34.7787 137.733L34.672 139.056H32.6885C32.5179 139.056 32.2193 139.063 31.7928 139.077C31.3662 139.091 30.897 139.105 30.3851 139.12C29.8875 139.134 29.4396 139.148 29.0415 139.162L28.9562 137.925L31.5155 137.307L30.5771 138.65C30.4918 137.968 30.4065 137.42 30.3211 137.008C30.2501 136.596 30.1505 136.191 30.0226 135.792L27.1007 126.664H27.7831L24.7119 136.454C24.6124 136.752 24.5413 137.058 24.4987 137.371C24.4702 137.684 24.4489 138.039 24.4347 138.437L23.3896 137.435L25.9063 137.733L25.7997 139.056H23.7948C23.6242 139.056 23.3612 139.063 23.0057 139.077C22.6645 139.091 22.2948 139.105 21.8967 139.12C21.5128 139.134 21.1644 139.148 20.8516 139.162ZM24.648 134.705V133.254H30.3638V134.705H24.648ZM41.1737 139.333C40.0504 139.333 39.1049 139.112 38.3371 138.672C37.5693 138.231 36.9863 137.598 36.5882 136.774C36.2043 135.935 36.0123 134.939 36.0123 133.788C36.0123 132.664 36.2114 131.69 36.6095 130.866C37.0218 130.027 37.6048 129.387 38.3584 128.946C39.1262 128.491 40.0504 128.264 41.131 128.264C41.7566 128.264 42.3538 128.321 42.9225 128.434C43.4913 128.548 44.0956 128.69 44.7354 128.861L44.4368 132.188L42.8586 132.124L42.8799 131.122C42.8657 130.894 42.8301 130.645 42.7732 130.375C42.7306 130.091 42.6595 129.814 42.56 129.543L43.5837 130.695C43.2567 130.453 42.887 130.233 42.4747 130.034C42.0765 129.835 41.6642 129.735 41.2376 129.735C40.6831 129.735 40.2281 129.906 39.8727 130.247C39.5314 130.574 39.2755 131.043 39.1049 131.655C38.9485 132.252 38.8703 132.963 38.8703 133.788C38.8703 134.541 38.9627 135.202 39.1475 135.771C39.3466 136.326 39.6381 136.759 40.022 137.072C40.4201 137.385 40.9319 137.541 41.5576 137.541C42.0268 137.541 42.4818 137.477 42.9225 137.349C43.3633 137.221 43.8041 137.044 44.2449 136.816L44.9273 137.968C44.3728 138.423 43.7756 138.764 43.1358 138.992C42.496 139.219 41.8419 139.333 41.1737 139.333ZM50.6843 139.376C49.6606 139.376 48.9426 139.091 48.5302 138.522C48.1179 137.939 47.9117 137.136 47.9117 136.112V128.84L48.9995 129.949H46.3122L46.2482 128.776C46.4899 128.69 46.7671 128.591 47.08 128.477C47.407 128.349 47.7269 128.221 48.0397 128.093C48.3667 127.951 48.6298 127.823 48.8288 127.709L47.9117 128.584C48.0113 128.456 48.125 128.278 48.253 128.05C48.3952 127.823 48.5374 127.588 48.6795 127.347C48.8217 127.091 48.9497 126.849 49.0634 126.622C49.1914 126.394 49.2838 126.223 49.3407 126.11L50.4071 126.195V136.176C50.4071 136.589 50.4924 136.93 50.663 137.2C50.8479 137.456 51.1464 137.584 51.5588 137.584C51.8289 137.584 52.092 137.534 52.3479 137.435C52.6181 137.321 52.874 137.179 53.1157 137.008L53.7982 138.139C53.3006 138.494 52.7816 138.793 52.2413 139.034C51.7152 139.262 51.1962 139.376 50.6843 139.376ZM50.0019 129.949V128.52H53.265L53.0944 129.949H50.0019ZM55.3416 139.162L55.235 137.84L57.837 137.349L56.5786 138.437C56.6213 138.266 56.664 138.011 56.7066 137.669C56.7635 137.328 56.8133 136.98 56.8559 136.624C56.8986 136.269 56.9199 135.999 56.9199 135.814V131.889C56.9199 131.676 56.8986 131.399 56.8559 131.058C56.8133 130.702 56.7635 130.34 56.7066 129.97C56.6497 129.586 56.6 129.259 56.5573 128.989L57.8157 130.375L55.107 129.949L55.2777 128.52H59.1593L59.6072 128.925C59.5788 129.181 59.5503 129.529 59.5219 129.97C59.4934 130.411 59.465 130.859 59.4366 131.314C59.4224 131.769 59.4152 132.174 59.4152 132.529V135.174C59.4152 135.828 59.4437 136.454 59.5006 137.051C59.5716 137.634 59.6356 138.082 59.6925 138.394L58.4768 137.456L61.0788 137.691L60.9508 139.056H57.8157C57.7161 139.056 57.5171 139.063 57.2185 139.077C56.9341 139.091 56.6142 139.105 56.2587 139.12C55.9175 139.134 55.6118 139.148 55.3416 139.162ZM57.6877 126.664C57.2611 126.664 56.927 126.522 56.6853 126.238C56.4578 125.939 56.344 125.584 56.344 125.171C56.344 124.73 56.4578 124.368 56.6853 124.084C56.927 123.799 57.2611 123.657 57.6877 123.657C58.1285 123.657 58.4626 123.792 58.6901 124.062C58.9318 124.318 59.0527 124.688 59.0527 125.171C59.0527 125.598 58.9318 125.953 58.6901 126.238C58.4626 126.522 58.1285 126.664 57.6877 126.664ZM66.7502 139.056L64.0842 131.719C63.942 131.307 63.7714 130.866 63.5723 130.397C63.3733 129.913 63.16 129.415 62.9325 128.904L64.4468 130.205L61.9941 129.949L62.1007 128.52H67.198L67.2834 129.885L65.0866 130.098L65.961 128.861C66.0606 129.344 66.153 129.821 66.2383 130.29C66.3236 130.745 66.4231 131.164 66.5369 131.548L68.3284 137.371H67.6673L69.6081 131.527C69.7645 131.1 69.8853 130.667 69.9707 130.226C70.0702 129.785 70.1768 129.33 70.2906 128.861L71.101 130.098L68.7763 129.842L68.8829 128.52H73.4044L73.5111 129.885L71.357 130.141L72.8926 128.946C72.6366 129.529 72.3807 130.091 72.1248 130.631C71.8688 131.171 71.6413 131.712 71.4423 132.252L68.9043 139.056H66.7502ZM74.9199 139.162L74.8132 137.84L77.4152 137.349L76.1569 138.437C76.1995 138.266 76.2422 138.011 76.2848 137.669C76.3417 137.328 76.3915 136.98 76.4341 136.624C76.4768 136.269 76.4981 135.999 76.4981 135.814V131.889C76.4981 131.676 76.4768 131.399 76.4341 131.058C76.3915 130.702 76.3417 130.34 76.2848 129.97C76.228 129.586 76.1782 129.259 76.1356 128.989L77.3939 130.375L74.6853 129.949L74.8559 128.52H78.7375L79.1854 128.925C79.157 129.181 79.1285 129.529 79.1001 129.97C79.0717 130.411 79.0432 130.859 79.0148 131.314C79.0006 131.769 78.9935 132.174 78.9935 132.529V135.174C78.9935 135.828 79.0219 136.454 79.0788 137.051C79.1499 137.634 79.2139 138.082 79.2707 138.394L78.0551 137.456L80.657 137.691L80.5291 139.056H77.3939C77.2944 139.056 77.0953 139.063 76.7967 139.077C76.5123 139.091 76.1924 139.105 75.837 139.12C75.4957 139.134 75.19 139.148 74.9199 139.162ZM77.2659 126.664C76.8394 126.664 76.5052 126.522 76.2635 126.238C76.036 125.939 75.9223 125.584 75.9223 125.171C75.9223 124.73 76.036 124.368 76.2635 124.084C76.5052 123.799 76.8394 123.657 77.2659 123.657C77.7067 123.657 78.0408 123.792 78.2683 124.062C78.51 124.318 78.6309 124.688 78.6309 125.171C78.6309 125.598 78.51 125.953 78.2683 126.238C78.0408 126.522 77.7067 126.664 77.2659 126.664ZM86.0085 139.376C84.9847 139.376 84.2667 139.091 83.8544 138.522C83.442 137.939 83.2359 137.136 83.2359 136.112V128.84L84.3236 129.949H81.6363L81.5723 128.776C81.814 128.69 82.0913 128.591 82.4041 128.477C82.7311 128.349 83.051 128.221 83.3638 128.093C83.6909 127.951 83.9539 127.823 84.153 127.709L83.2359 128.584C83.3354 128.456 83.4491 128.278 83.5771 128.05C83.7193 127.823 83.8615 127.588 84.0037 127.347C84.1459 127.091 84.2738 126.849 84.3876 126.622C84.5155 126.394 84.608 126.223 84.6648 126.11L85.7312 126.195V136.176C85.7312 136.589 85.8165 136.93 85.9872 137.2C86.172 137.456 86.4706 137.584 86.8829 137.584C87.1531 137.584 87.4161 137.534 87.672 137.435C87.9422 137.321 88.1981 137.179 88.4398 137.008L89.1223 138.139C88.6247 138.494 88.1057 138.793 87.5654 139.034C87.0393 139.262 86.5203 139.376 86.0085 139.376ZM85.326 129.949V128.52H88.5891L88.4185 129.949H85.326ZM95.1873 144.281L93.3104 143.833L93.2038 143.47C93.4455 143.044 93.6517 142.653 93.8223 142.297C93.9929 141.942 94.1564 141.572 94.3128 141.188C94.4834 140.819 94.6612 140.378 94.846 139.866C95.0309 139.368 95.2584 138.75 95.5285 138.011V140.079L92.3293 132.06C92.1161 131.534 91.8815 131.015 91.6255 130.503C91.3838 129.977 91.1421 129.458 90.9004 128.946L92.436 130.162L90.1326 129.863L90.2392 128.52H95.3366L95.4219 129.821L93.1398 130.077L94.0142 128.861C94.1138 129.287 94.2062 129.728 94.2915 130.183C94.391 130.638 94.5119 131.086 94.6541 131.527L96.6802 137.2H95.9764L97.8319 131.612C97.9883 131.157 98.1092 130.702 98.1945 130.247C98.2798 129.778 98.358 129.316 98.4291 128.861L99.3248 130.098L97.0428 129.778L97.1494 128.52H101.799L101.863 129.821L99.6661 130.077L101.223 128.925C100.981 129.451 100.732 129.984 100.477 130.524C100.235 131.065 100.007 131.605 99.7941 132.145L95.1873 144.281Z" fill="#AC6755"/>
</svg>
