<svg width="122" height="14" viewBox="0 0 122 14" fill="none" xmlns="http://www.w3.org/2000/svg">
<path d="M0.930667 12.0776L0.853111 11.1624L2.72996 10.8056L1.87684 11.5967C1.90787 11.4519 1.93889 11.2606 1.96991 11.0228C2.01127 10.7746 2.04747 10.5264 2.07849 10.2783C2.10951 10.0197 2.12502 9.82327 2.12502 9.68884V3.36031C2.12502 3.22588 2.10951 3.05009 2.07849 2.83293C2.05781 2.61578 2.02679 2.39345 1.98542 2.16595C1.9544 1.92812 1.91821 1.73681 1.87684 1.59204L2.72996 2.27453L0.868622 1.96431L0.946178 0.98711C1.13231 0.99745 1.3443 1.00779 1.58213 1.01813C1.81997 1.02847 2.04747 1.03881 2.26462 1.04915C2.48178 1.05949 2.6524 1.06467 2.77649 1.06467C3.03501 1.06467 3.29353 1.06467 3.55204 1.06467C3.8209 1.05432 4.06908 1.04398 4.29658 1.03364C4.52407 1.0233 4.72572 1.01813 4.90151 1.01813C5.0773 1.00779 5.2169 0.99745 5.32031 0.98711L5.38236 2.04187L3.36591 2.228L4.188 1.57653C4.16732 1.73164 4.1363 1.93846 4.09493 2.19698C4.06391 2.45549 4.03289 2.72952 4.00187 3.01907C3.98119 3.29827 3.97084 3.56712 3.97084 3.82564V9.22351C3.97084 9.50271 3.98119 9.80259 4.00187 10.1232C4.03289 10.4334 4.06391 10.7229 4.09493 10.9918C4.1363 11.2503 4.16732 11.4519 4.188 11.5967L3.52102 10.8987H5.75462C6.08553 10.8987 6.40092 10.8729 6.7008 10.8212C7.00068 10.7695 7.21267 10.7281 7.33676 10.6971L6.63876 11.3485C6.82489 11.121 6.98517 10.8935 7.1196 10.666C7.25403 10.4385 7.33159 10.2731 7.35227 10.1697L7.56942 9.19249L8.5156 9.27004L8.28293 11.7828L7.98822 12.062C7.77107 12.0517 7.54357 12.0414 7.30573 12.031C7.0679 12.0207 6.85074 12.0103 6.65427 12C6.45779 12 6.31302 12 6.21996 12H3.11773C3.01433 12 2.83336 12.0052 2.57484 12.0155C2.32667 12.0259 2.05264 12.0362 1.75276 12.0465C1.46321 12.0569 1.18919 12.0672 0.930667 12.0776ZM10.5718 13.6287L10.2616 12.5894C11.1405 12.4757 11.9109 12.2689 12.5727 11.969C13.2345 11.6588 13.7464 11.2917 14.1083 10.8677C14.4703 10.4334 14.6512 9.96287 14.6512 9.45618C14.6512 8.89778 14.4961 8.46347 14.1859 8.15324C13.8757 7.84302 13.4362 7.68791 12.8674 7.68791C12.6916 7.68791 12.5055 7.69308 12.309 7.70342C12.1126 7.71376 11.9626 7.72927 11.8592 7.74995L11.6421 6.77275C12.5417 6.63833 13.2139 6.36947 13.6585 5.96618C14.1135 5.56289 14.341 5.04068 14.341 4.39955C14.341 3.9032 14.2169 3.53093 13.9687 3.28275C13.7309 3.02424 13.3845 2.89498 12.9295 2.89498C12.6193 2.89498 12.3297 2.93634 12.0609 3.01907C11.8023 3.09145 11.5697 3.2052 11.3629 3.36031L11.9523 2.33658C11.9109 2.50203 11.8644 2.68816 11.8127 2.89498C11.761 3.10179 11.7196 3.2931 11.6886 3.46889C11.6576 3.63434 11.6421 3.74809 11.6421 3.81013V4.58569L10.5718 4.64773L10.3546 2.18147C10.82 2.02635 11.2646 1.91261 11.6886 1.84022C12.1229 1.76784 12.5624 1.73164 13.007 1.73164C14.0928 1.73164 14.9201 1.95914 15.4888 2.41413C16.0576 2.85878 16.3419 3.51025 16.3419 4.36853C16.3419 4.97864 16.1351 5.52153 15.7215 5.9972C15.3079 6.47287 14.7184 6.8348 13.9532 7.08298V6.74173C14.5116 6.7831 14.9976 6.9227 15.4113 7.16053C15.8352 7.39837 16.1661 7.70859 16.404 8.0912C16.6521 8.46347 16.7762 8.88227 16.7762 9.3476C16.7762 9.88532 16.6211 10.3972 16.3109 10.8832C16.011 11.3589 15.5819 11.788 15.0235 12.1706C14.4651 12.5636 13.8084 12.8841 13.0536 13.1323C12.2987 13.3805 11.4714 13.5459 10.5718 13.6287ZM25.0456 12.0776L24.968 11.1624L26.8449 10.8056L26.0073 11.5036C26.028 11.3796 26.0538 11.2038 26.0848 10.9763C26.1262 10.7384 26.1624 10.5006 26.1934 10.2628C26.2244 10.0146 26.24 9.82327 26.24 9.68884V3.36031C26.24 3.2569 26.2244 3.10179 26.1934 2.89498C26.1727 2.67782 26.1469 2.45032 26.1159 2.21249C26.0848 1.96431 26.0486 1.73681 26.0073 1.53L26.8449 2.27453L24.9836 1.96431L25.0611 0.98711C25.2472 0.99745 25.4592 1.00779 25.6971 1.01813C25.9349 1.02847 26.1624 1.03881 26.3796 1.04915C26.5967 1.05949 26.7673 1.06467 26.8914 1.06467H30.5365C30.6296 1.06467 30.7795 1.06467 30.9864 1.06467C31.1932 1.05432 31.4155 1.04398 31.6533 1.03364C31.8912 1.01296 32.1083 0.99745 32.3048 0.98711L32.5995 1.26631L32.7081 3.43787L31.7154 3.51542L31.5758 2.72435C31.5654 2.63129 31.4982 2.46584 31.3741 2.228C31.25 1.97982 31.1311 1.76784 31.0174 1.59204L31.7464 2.21249C31.5706 2.19181 31.3276 2.17112 31.0174 2.15044C30.7072 2.11942 30.4021 2.10391 30.1022 2.10391H27.4498L28.2409 1.70062C28.2202 1.93846 28.1944 2.19698 28.1633 2.47618C28.1426 2.75538 28.122 3.01907 28.1013 3.26724C28.0909 3.50508 28.0858 3.69121 28.0858 3.82564V9.22351C28.0858 9.44067 28.0961 9.69918 28.1168 9.99907C28.1375 10.2989 28.1633 10.5833 28.1944 10.8522C28.2254 11.121 28.2512 11.3227 28.2719 11.4571L27.636 10.8987H30.2728C30.6037 10.8987 30.9191 10.8729 31.219 10.8212C31.5189 10.7695 31.7309 10.7281 31.855 10.6971L31.157 11.3485C31.3328 11.1417 31.4879 10.9246 31.6223 10.6971C31.7567 10.4592 31.8395 10.2834 31.8705 10.1697L32.0876 9.19249L33.0338 9.27004L32.8012 11.7828L32.5064 12.062C32.31 12.0517 32.098 12.0414 31.8705 12.031C31.6533 12.0207 31.4413 12.0103 31.2345 12C31.0381 12 30.8726 12 30.7382 12H27.2327C27.0982 12 26.9018 12 26.6432 12C26.3951 12.0103 26.1262 12.0207 25.8367 12.031C25.5575 12.0414 25.2938 12.0569 25.0456 12.0776ZM30.6141 7.99813L30.3969 6.43151L31.0949 7.03644C30.9502 7.0261 30.7692 7.01059 30.552 6.98991C30.3349 6.96923 30.1177 6.94855 29.9006 6.92787C29.6834 6.90718 29.5025 6.89684 29.3577 6.89684H27.4808V5.8576H29.6679C29.854 5.8576 30.0712 5.83692 30.3194 5.79556C30.5779 5.75419 30.7744 5.718 30.9088 5.68698L30.3969 6.32293L30.6141 4.70978L31.4362 4.78733V6.09027C31.4362 6.69003 31.4517 7.29496 31.4827 7.90507L30.6141 7.99813ZM34.9521 12.0776L34.8746 11.1624L36.7514 10.8056L35.9138 11.5657C35.9345 11.3899 35.9603 11.1831 35.9914 10.9452C36.0327 10.6971 36.0689 10.4592 36.0999 10.2317C36.131 9.9939 36.1465 9.81293 36.1465 9.68884V3.36031C36.1465 3.22588 36.131 3.03975 36.0999 2.80191C36.0689 2.55373 36.0379 2.31072 36.0069 2.07289C35.9758 1.83505 35.95 1.65409 35.9293 1.53L36.7514 2.27453L34.8901 1.96431L34.9676 0.98711C35.1538 0.99745 35.3606 1.00779 35.5881 1.01813C35.8259 1.02847 36.0534 1.03881 36.2706 1.04915C36.4981 1.05949 36.6687 1.06467 36.7824 1.06467C37.0823 1.06467 37.3874 1.05949 37.6976 1.04915C38.0078 1.02847 38.318 1.01296 38.6282 1.00262C38.9488 0.99228 39.259 0.98711 39.5589 0.98711C40.7378 0.98711 41.7253 1.21978 42.5215 1.68511C43.3281 2.15044 43.9382 2.80191 44.3518 3.63951C44.7655 4.46677 44.9723 5.43363 44.9723 6.54009C44.9723 7.62587 44.7603 8.58756 44.3363 9.42516C43.9227 10.2524 43.3126 10.9039 42.506 11.3796C41.6994 11.8449 40.7171 12.0776 39.5589 12.0776C39.1763 12.0776 38.773 12.062 38.349 12.031C37.9354 12.0103 37.5321 12 37.1392 12C37.0047 12 36.8083 12.0052 36.5498 12.0155C36.3016 12.0259 36.0327 12.0362 35.7432 12.0465C35.4536 12.0569 35.1899 12.0672 34.9521 12.0776ZM38.1319 11.4571L37.7131 10.9452C37.9096 10.9452 38.1629 10.9556 38.4731 10.9763C38.7834 10.9866 39.1143 10.9918 39.4658 10.9918C40.2828 10.9918 40.9497 10.7901 41.4668 10.3868C41.9838 9.98356 42.3613 9.44584 42.5991 8.77369C42.8369 8.0912 42.9558 7.3415 42.9558 6.52458C42.9558 5.718 42.8369 4.97864 42.5991 4.30649C42.3613 3.63434 41.9838 3.09662 41.4668 2.69333C40.9497 2.2797 40.2879 2.07289 39.4814 2.07289C39.1401 2.07289 38.804 2.07806 38.4731 2.0884C38.1526 2.09874 37.9096 2.10391 37.7441 2.10391L38.1474 1.54551C38.1371 1.59721 38.1215 1.70579 38.1009 1.87124C38.0905 2.0367 38.075 2.23834 38.0543 2.47618C38.0337 2.70367 38.0181 2.94151 38.0078 3.18969C37.9975 3.42753 37.9923 3.63951 37.9923 3.82564V9.22351C37.9923 9.49237 38.0026 9.78191 38.0233 10.0921C38.044 10.4024 38.0647 10.6816 38.0854 10.9297C38.1164 11.1779 38.1319 11.3537 38.1319 11.4571ZM52.1459 12.2327C50.7499 12.2327 49.6952 11.8345 48.9817 11.0383C48.2785 10.2421 47.9269 9.18215 47.9269 7.85853V3.40684C47.9269 3.27241 47.9114 3.07594 47.8804 2.81742C47.8494 2.5589 47.8183 2.30038 47.7873 2.04187C47.7563 1.78335 47.7253 1.59204 47.6942 1.46795L48.5318 2.27453L46.6705 1.96431L46.7481 0.98711C46.9342 0.99745 47.1462 1.00779 47.384 1.01813C47.6219 1.02847 47.8494 1.03881 48.0665 1.04915C48.2837 1.05949 48.4543 1.06467 48.5784 1.06467C48.8886 1.06467 49.2092 1.05949 49.5401 1.04915C49.871 1.03881 50.1709 1.02847 50.4397 1.01813C50.7086 0.997451 50.9102 0.98711 51.0446 0.98711L51.1067 2.04187L49.2298 2.228L50.0364 1.46795C50.0157 1.66443 49.9899 1.90227 49.9589 2.18147C49.9278 2.46067 49.902 2.75021 49.8813 3.05009C49.871 3.33963 49.8658 3.61366 49.8658 3.87218V7.92058C49.8658 8.47898 49.9537 8.98567 50.1295 9.44067C50.3156 9.88532 50.5948 10.2369 50.9671 10.4954C51.3394 10.7539 51.7995 10.8832 52.3476 10.8832C52.9267 10.8832 53.3972 10.7591 53.7591 10.5109C54.1314 10.2628 54.4002 9.91634 54.5657 9.47169C54.7415 9.0167 54.8294 8.49966 54.8294 7.92058V3.40684C54.8294 3.31378 54.819 3.17935 54.7983 3.00355C54.7777 2.82776 54.7518 2.64163 54.7208 2.44515C54.7001 2.24868 54.6742 2.06255 54.6432 1.88675C54.6225 1.71096 54.6019 1.57136 54.5812 1.46795L55.4653 2.27453L53.573 1.96431L53.6505 0.98711C53.9194 0.99745 54.2193 1.01296 54.5502 1.03364C54.8811 1.05432 55.1396 1.06467 55.3257 1.06467C55.7807 1.06467 56.1943 1.05432 56.5666 1.03364C56.9389 1.01296 57.2698 0.99745 57.5593 0.98711L57.6369 2.04187L55.76 2.228L56.5821 1.46795C56.5614 1.64375 56.5304 1.87124 56.489 2.15044C56.458 2.42964 56.4322 2.71918 56.4115 3.01907C56.3908 3.31895 56.3805 3.60332 56.3805 3.87218V7.85853C56.3805 9.18215 56.0237 10.2421 55.3102 11.0383C54.5967 11.8345 53.5419 12.2327 52.1459 12.2327ZM64.5226 12.2327C63.3851 12.2327 62.4338 11.9948 61.6685 11.5192C60.9033 11.0331 60.3294 10.3662 59.9468 9.51822C59.5642 8.65994 59.3729 7.66723 59.3729 6.54009C59.3729 5.41295 59.5642 4.42024 59.9468 3.56195C60.3294 2.70367 60.9033 2.0367 61.6685 1.56102C62.4338 1.07501 63.3851 0.831999 64.5226 0.831999C65.1637 0.831999 65.7428 0.888873 66.2598 1.00262C66.7769 1.10603 67.2887 1.22495 67.7954 1.35938L67.6248 3.87218L66.5856 3.81013L66.5701 2.98804C66.5701 2.88464 66.5235 2.70367 66.4305 2.44515C66.3477 2.18664 66.2702 1.95914 66.1978 1.76267L66.8958 2.41413C66.5028 2.29004 66.0996 2.18664 65.6859 2.10391C65.2826 2.01084 64.8949 1.96431 64.5226 1.96431C63.8298 1.96431 63.261 2.17112 62.8164 2.58475C62.3717 2.98804 62.0408 3.5361 61.8237 4.22893C61.6168 4.91142 61.5134 5.67664 61.5134 6.52458C61.5134 7.37252 61.6168 8.1429 61.8237 8.83573C62.0408 9.52856 62.3665 10.0818 62.8009 10.4954C63.2455 10.8987 63.8143 11.1004 64.5071 11.1004C64.9 11.1004 65.3085 11.059 65.7325 10.9763C66.1564 10.8935 66.5959 10.785 67.0509 10.6505L66.3064 11.333C66.3684 11.1883 66.4305 11.0228 66.4925 10.8367C66.5649 10.6505 66.6269 10.4799 66.6786 10.3248C66.7303 10.1697 66.7562 10.0559 66.7562 9.98356L66.8027 9.25453L67.8265 9.22351L67.935 11.7053C67.4387 11.8294 66.901 11.9483 66.3219 12.062C65.7531 12.1758 65.1534 12.2327 64.5226 12.2327ZM69.772 12.0776L69.6945 11.1779L71.3541 10.8056L70.2218 11.5502C70.3769 11.2813 70.5114 11.0383 70.6251 10.8212C70.7492 10.604 70.8578 10.392 70.9509 10.1852C71.0543 9.96804 71.1422 9.74055 71.2145 9.50271L74.0531 1.06467L75.3405 0.894043L78.4893 9.82844C78.5823 10.0973 78.6909 10.361 78.815 10.6195C78.9494 10.8677 79.0683 11.1055 79.1717 11.333L78.148 10.7436L79.9008 11.0383L79.8232 12H78.3807C78.2566 12 78.0394 12.0052 77.7292 12.0155C77.419 12.0259 77.0777 12.0362 76.7055 12.0465C76.3436 12.0569 76.0178 12.0672 75.7283 12.0776L75.6662 11.1779L77.5276 10.7281L76.8451 11.7053C76.783 11.2089 76.721 10.8108 76.6589 10.5109C76.6072 10.2111 76.5349 9.91634 76.4418 9.6268L74.3168 2.98804H74.8131L72.5795 10.1076C72.5071 10.3248 72.4554 10.5471 72.4244 10.7746C72.4037 11.0021 72.3882 11.2606 72.3779 11.5502L71.6178 10.8212L73.4481 11.0383L73.3706 12H71.9125C71.7885 12 71.5972 12.0052 71.3386 12.0155C71.0905 12.0259 70.8216 12.0362 70.5321 12.0465C70.2529 12.0569 69.9995 12.0672 69.772 12.0776ZM72.533 8.83573V7.78098H76.69V8.83573H72.533ZM82.5656 12.0776L82.4881 11.1624L84.5976 10.8056L83.76 11.5967C83.791 11.4519 83.822 11.2555 83.8531 11.0073C83.8841 10.7591 83.9151 10.5109 83.9461 10.2628C83.9772 10.0146 83.9927 9.82327 83.9927 9.68884V3.36031C83.9927 3.22588 83.9772 3.05009 83.9461 2.83293C83.9255 2.60544 83.8944 2.37794 83.8531 2.15044C83.822 1.92295 83.791 1.73681 83.76 1.59204L86.0556 1.57653C86.035 1.73164 86.0091 1.93329 85.9781 2.18147C85.9471 2.42964 85.916 2.6985 85.885 2.98804C85.8643 3.26724 85.854 3.54644 85.854 3.82564V9.22351C85.854 9.50271 85.8643 9.79742 85.885 10.1076C85.916 10.4179 85.9471 10.7074 85.9781 10.9763C86.0091 11.2451 86.035 11.4519 86.0556 11.5967L85.2336 10.8677L87.4206 11.0383L87.3276 12H84.9854C84.8716 12 84.67 12.0052 84.3804 12.0155C84.1012 12.0259 83.7962 12.0362 83.4653 12.0465C83.1447 12.0569 82.8448 12.0672 82.5656 12.0776ZM81.3248 3.99627L80.332 3.91871L80.4406 1.26631L80.7508 0.98711C80.9473 0.99745 81.1645 1.00779 81.4023 1.01813C81.6401 1.02847 81.8625 1.03881 82.0693 1.04915C82.2761 1.05949 82.426 1.06467 82.5191 1.06467H87.312C87.4051 1.06467 87.5602 1.05949 87.7774 1.04915C87.9945 1.03881 88.2272 1.02847 88.4754 1.01813C88.7236 1.00779 88.9304 0.99745 89.0958 0.98711L89.3905 1.26631L89.4991 3.91871L88.5219 3.99627C88.5116 3.88252 88.4961 3.74292 88.4754 3.57747C88.4547 3.41201 88.4288 3.25173 88.3978 3.09662C88.3771 2.94151 88.3565 2.82776 88.3358 2.75538L87.8084 1.48347L88.6615 2.21249C88.5064 2.19181 88.2582 2.17112 87.917 2.15044C87.5757 2.11942 87.2345 2.10391 86.8932 2.10391H82.9844C82.7673 2.10391 82.5346 2.11425 82.2864 2.13493C82.0383 2.14527 81.8159 2.16078 81.6195 2.18147C81.423 2.19181 81.2834 2.20215 81.2007 2.21249L81.9917 1.48347L81.5264 2.75538C81.4954 2.86912 81.4592 3.0656 81.4178 3.3448C81.3765 3.61366 81.3454 3.83081 81.3248 3.99627ZM91.2859 12.0776L91.2084 11.1624L93.0852 10.8056L92.2321 11.5967C92.2631 11.4519 92.2941 11.2606 92.3252 11.0228C92.3665 10.7746 92.4027 10.5264 92.4337 10.2783C92.4648 10.0197 92.4803 9.82327 92.4803 9.68884V3.36031C92.4803 3.22588 92.4648 3.05009 92.4337 2.83293C92.4131 2.61578 92.382 2.39345 92.3407 2.16595C92.3097 1.92812 92.2735 1.73681 92.2321 1.59204L93.0852 2.27453L91.2239 1.96431L91.3014 0.98711C91.4876 0.99745 91.6996 1.00779 91.9374 1.01813C92.1752 1.02847 92.4027 1.03881 92.6199 1.04915C92.837 1.05949 93.0077 1.06467 93.1317 1.06467C93.5247 1.06467 93.9176 1.05949 94.3106 1.04915C94.7139 1.02847 95.1172 1.00779 95.5205 0.98711L95.5825 2.04187L93.7212 2.228L94.5433 1.57653C94.5226 1.73164 94.4916 1.93846 94.4502 2.19698C94.4192 2.45549 94.3881 2.72952 94.3571 3.01907C94.3364 3.29827 94.3261 3.56712 94.3261 3.82564V9.22351C94.3261 9.50271 94.3364 9.80259 94.3571 10.1232C94.3881 10.4334 94.4192 10.7229 94.4502 10.9918C94.4916 11.2503 94.5226 11.4519 94.5433 11.5967L93.7212 10.8677L95.6756 11.0383L95.598 12H93.473C93.1111 12 92.7491 12.0052 92.3872 12.0155C92.0253 12.0362 91.6582 12.0569 91.2859 12.0776ZM102.879 12.2327C101.762 12.2327 100.811 11.9948 100.025 11.5192C99.2392 11.0435 98.6343 10.3765 98.2103 9.51822C97.7967 8.65994 97.5899 7.66723 97.5899 6.54009C97.5899 5.40261 97.7967 4.40473 98.2103 3.54644C98.6343 2.68816 99.2392 2.02118 100.025 1.54551C100.811 1.06984 101.762 0.831999 102.879 0.831999C104.006 0.831999 104.963 1.06984 105.749 1.54551C106.535 2.02118 107.134 2.68816 107.548 3.54644C107.962 4.40473 108.168 5.40261 108.168 6.54009C108.168 7.66723 107.962 8.65994 107.548 9.51822C107.134 10.3765 106.535 11.0435 105.749 11.5192C104.963 11.9948 104.006 12.2327 102.879 12.2327ZM102.879 11.1004C103.593 11.1004 104.177 10.9142 104.632 10.542C105.087 10.1593 105.428 9.6268 105.656 8.94431C105.883 8.26182 105.997 7.46041 105.997 6.54009C105.997 5.60942 105.883 4.80284 105.656 4.12035C105.428 3.43787 105.087 2.91049 104.632 2.53822C104.177 2.15561 103.593 1.96431 102.879 1.96431C102.176 1.96431 101.592 2.15561 101.126 2.53822C100.671 2.91049 100.33 3.43787 100.103 4.12035C99.8752 4.80284 99.7614 5.60942 99.7614 6.54009C99.7614 7.46041 99.8752 8.26182 100.103 8.94431C100.33 9.6268 100.671 10.1593 101.126 10.542C101.592 10.9142 102.176 11.1004 102.879 11.1004ZM110.16 12.0776L110.082 11.1624L111.959 10.8056L111.137 11.4261C111.158 11.302 111.184 11.1314 111.215 10.9142C111.256 10.6867 111.287 10.4592 111.308 10.2317C111.339 10.0042 111.354 9.82327 111.354 9.68884V3.36031C111.354 3.23622 111.339 3.05526 111.308 2.81742C111.277 2.56924 111.24 2.32624 111.199 2.0884C111.168 1.85056 111.147 1.69028 111.137 1.60755L111.944 2.27453L110.082 1.96431L110.16 0.98711C110.336 0.99745 110.537 1.00779 110.765 1.01813C111.003 1.02847 111.225 1.03881 111.432 1.04915C111.639 1.05949 111.799 1.06467 111.913 1.06467H112.936L113.231 1.37489C113.407 1.65409 113.593 1.96431 113.789 2.30555C113.996 2.63646 114.182 2.93634 114.348 3.2052C114.513 3.46372 114.622 3.63951 114.674 3.73258L118.893 9.56476L118.458 9.71987V3.36031C118.458 3.23622 118.443 3.05526 118.412 2.81742C118.381 2.56924 118.344 2.32107 118.303 2.07289C118.262 1.82471 118.226 1.63858 118.195 1.51449L119.048 2.27453L117.202 1.96431L117.279 0.98711C117.445 0.99745 117.631 1.00779 117.838 1.01813C118.045 1.02847 118.246 1.03881 118.443 1.04915C118.639 1.05949 118.794 1.06467 118.908 1.06467C119.404 1.06467 119.828 1.05432 120.18 1.03364C120.532 1.01296 120.857 0.99745 121.157 0.98711L121.219 2.04187L119.358 2.228L120.195 1.56102C120.185 1.68511 120.154 1.87641 120.102 2.13493C120.051 2.38311 120.004 2.65714 119.963 2.95702C119.921 3.24656 119.901 3.5361 119.901 3.82564V12H118.443L112.378 3.51542L112.812 3.36031V9.22351C112.812 9.48203 112.823 9.76123 112.843 10.0611C112.874 10.361 112.905 10.6402 112.936 10.8987C112.967 11.1572 112.993 11.364 113.014 11.5192L112.192 10.8677L114.084 11.0383L113.991 12H112.037C111.944 12 111.783 12.0052 111.556 12.0155C111.339 12.0259 111.101 12.0362 110.842 12.0465C110.594 12.0569 110.367 12.0672 110.16 12.0776Z" fill="black"/>
</svg>
