<svg width="136" height="15" viewBox="0 0 136 15" fill="none" xmlns="http://www.w3.org/2000/svg">
<path d="M4.84357 11.8217C4.00597 11.8217 3.29246 11.6433 2.70303 11.2866C2.11361 10.9298 1.65991 10.4296 1.34193 9.78588C1.03171 9.14217 0.876601 8.39764 0.876601 7.55228C0.876601 6.69917 1.03171 5.95076 1.34193 5.30705C1.65991 4.66334 2.11361 4.1631 2.70303 3.80635C3.29246 3.44959 4.00597 3.27122 4.84357 3.27122C5.68892 3.27122 6.40631 3.44959 6.99574 3.80635C7.58516 4.1631 8.03498 4.66334 8.3452 5.30705C8.65542 5.95076 8.81054 6.69917 8.81054 7.55228C8.81054 8.39764 8.65542 9.14217 8.3452 9.78588C8.03498 10.4296 7.58516 10.9298 6.99574 11.2866C6.40631 11.6433 5.68892 11.8217 4.84357 11.8217ZM4.84357 10.9725C5.3787 10.9725 5.81689 10.8329 6.15814 10.5537C6.49938 10.2667 6.75531 9.86732 6.92594 9.35545C7.09656 8.84358 7.18187 8.24253 7.18187 7.55228C7.18187 6.85428 7.09656 6.24935 6.92594 5.73748C6.75531 5.22562 6.49938 4.83008 6.15814 4.55088C5.81689 4.26393 5.3787 4.12045 4.84357 4.12045C4.31619 4.12045 3.878 4.26393 3.529 4.55088C3.18776 4.83008 2.93182 5.22562 2.7612 5.73748C2.59058 6.24935 2.50527 6.85428 2.50527 7.55228C2.50527 8.24253 2.59058 8.84358 2.7612 9.35545C2.93182 9.86732 3.18776 10.2667 3.529 10.5537C3.878 10.8329 4.31619 10.9725 4.84357 10.9725ZM10.1412 11.7054L10.083 10.9841L11.5023 10.7165L10.8159 11.3099C10.8392 11.2168 10.8625 11.0772 10.8857 10.8911C10.9167 10.7049 10.9439 10.5149 10.9672 10.321C10.9904 10.1271 11.0021 9.97977 11.0021 9.87895V7.73842C11.0021 7.62208 10.9904 7.46309 10.9672 7.26145C10.9439 7.05981 10.9129 6.86204 10.8741 6.66815C10.8431 6.4665 10.8198 6.32303 10.8043 6.23772L11.4907 6.91245L10.0132 6.67978L10.1063 5.90035H11.8513L12.084 6.12138L12.3399 8.08742L11.9327 7.34288C12.0801 7.03266 12.2546 6.76122 12.4562 6.52855C12.6579 6.28813 12.8905 6.10199 13.1542 5.97015C13.4179 5.83055 13.7165 5.76075 14.05 5.76075C14.5231 5.76075 14.8992 5.84994 15.1784 6.02832C15.4654 6.20669 15.6709 6.46651 15.795 6.80775C15.9268 7.14899 15.9928 7.56392 15.9928 8.05252V9.52995C15.9928 9.87895 16.0121 10.2124 16.0509 10.5304C16.0975 10.8406 16.1324 11.0733 16.1556 11.2284L15.4925 10.7747L16.9118 10.9027L16.842 11.6472H15.2366C15.1745 11.6472 15.066 11.6511 14.9109 11.6589C14.7557 11.6666 14.589 11.6744 14.4106 11.6821C14.2322 11.6899 14.0694 11.6976 13.922 11.7054L13.8639 10.9841L15.1552 10.6933L14.5153 11.2284C14.5308 11.1121 14.5463 10.9647 14.5619 10.7864C14.5851 10.6002 14.6045 10.4218 14.62 10.2512C14.6355 10.0806 14.6433 9.95651 14.6433 9.87895V8.14558C14.6433 7.89741 14.6123 7.66474 14.5502 7.44758C14.4959 7.23043 14.3951 7.05981 14.2478 6.93572C14.1004 6.80387 13.8988 6.73795 13.6428 6.73795C13.2938 6.73795 12.9914 6.90082 12.7354 7.22655C12.4872 7.54453 12.3632 7.97496 12.3632 8.51785V9.52995C12.3632 9.88671 12.3787 10.2279 12.4097 10.5537C12.4485 10.8717 12.4834 11.116 12.5144 11.2866L11.8513 10.7747L13.2706 10.9027L13.2008 11.6472H11.4907C11.4364 11.6472 11.3278 11.6511 11.1649 11.6589C11.0098 11.6666 10.8353 11.6744 10.6414 11.6821C10.4553 11.6899 10.2885 11.6976 10.1412 11.7054ZM17.4631 11.7054L17.4049 10.9841L18.8358 10.7165L18.1495 11.3099C18.1727 11.2168 18.196 11.0772 18.2193 10.8911C18.2503 10.7049 18.2774 10.5149 18.3007 10.321C18.324 10.1271 18.3356 9.97977 18.3356 9.87895V4.69048C18.3356 4.57415 18.324 4.42292 18.3007 4.23678C18.2774 4.04289 18.2503 3.84513 18.2193 3.64348C18.1882 3.43408 18.1611 3.2557 18.1378 3.10835L18.8126 3.86452L17.3468 3.52715L17.4282 2.80588L18.673 2.85242H19.5571L19.7898 3.07345C19.782 3.21305 19.7665 3.40306 19.7432 3.64348C19.7277 3.88391 19.7161 4.12821 19.7083 4.37638C19.7006 4.62456 19.6967 4.84559 19.6967 5.03948V9.52995C19.6967 9.89446 19.7122 10.2357 19.7432 10.5537C19.782 10.8717 19.8169 11.116 19.8479 11.2866L19.1732 10.7747L20.6041 10.9027L20.5343 11.6472H18.8242C18.7699 11.6472 18.6613 11.6511 18.4985 11.6589C18.3434 11.6666 18.1689 11.6744 17.975 11.6821C17.7888 11.6899 17.6182 11.6976 17.4631 11.7054ZM21.3883 11.7054L21.3301 10.9841L22.7494 10.7165L22.063 11.3099C22.0863 11.2168 22.1095 11.0772 22.1328 10.8911C22.1638 10.7049 22.191 10.5149 22.2142 10.321C22.2375 10.1271 22.2491 9.97977 22.2491 9.87895V7.73842C22.2491 7.62208 22.2375 7.47085 22.2142 7.28472C22.191 7.09083 22.1638 6.89306 22.1328 6.69142C22.1018 6.48202 22.0746 6.30364 22.0514 6.15628L22.7377 6.91245L21.2603 6.67978L21.3534 5.90035H23.4706L23.7149 6.12138C23.6994 6.26098 23.6839 6.45099 23.6684 6.69142C23.6529 6.93184 23.6374 7.17614 23.6219 7.42432C23.6141 7.67249 23.6102 7.89353 23.6102 8.08742V9.52995C23.6102 9.88671 23.6257 10.2279 23.6568 10.5537C23.6955 10.8717 23.7304 11.116 23.7615 11.2866L23.0984 10.7747L24.5176 10.9027L24.4478 11.6472H22.7377C22.6834 11.6472 22.5749 11.6511 22.412 11.6589C22.2569 11.6666 22.0824 11.6744 21.8885 11.6821C21.7024 11.6899 21.5356 11.6976 21.3883 11.7054ZM22.6679 4.88825C22.4353 4.88825 22.253 4.81069 22.1212 4.65558C21.9971 4.49272 21.935 4.29883 21.935 4.07392C21.935 3.83349 21.9971 3.63573 22.1212 3.48062C22.253 3.3255 22.4353 3.24795 22.6679 3.24795C22.9083 3.24795 23.0906 3.32163 23.2147 3.46898C23.3465 3.60858 23.4125 3.81023 23.4125 4.07392C23.4125 4.30658 23.3465 4.50047 23.2147 4.65558C23.0906 4.81069 22.9083 4.88825 22.6679 4.88825ZM25.3077 11.7054L25.2495 10.9841L26.6688 10.7165L25.9824 11.3099C26.0057 11.2168 26.029 11.0772 26.0522 10.8911C26.0832 10.7049 26.1104 10.5149 26.1337 10.321C26.1569 10.1271 26.1686 9.97977 26.1686 9.87895V7.73842C26.1686 7.62208 26.1569 7.46309 26.1337 7.26145C26.1104 7.05981 26.0794 6.86204 26.0406 6.66815C26.0096 6.4665 25.9863 6.32303 25.9708 6.23772L26.6572 6.91245L25.1797 6.67978L25.2728 5.90035H27.0178L27.2505 6.12138L27.5064 8.08742L27.0992 7.34288C27.2466 7.03266 27.4211 6.76122 27.6227 6.52855C27.8244 6.28813 28.057 6.10199 28.3207 5.97015C28.5844 5.83055 28.883 5.76075 29.2165 5.76075C29.6896 5.76075 30.0657 5.84994 30.3449 6.02832C30.6319 6.20669 30.8374 6.46651 30.9615 6.80775C31.0933 7.14899 31.1593 7.56392 31.1593 8.05252V9.52995C31.1593 9.87895 31.1786 10.2124 31.2174 10.5304C31.264 10.8406 31.2989 11.0733 31.3221 11.2284L30.659 10.7747L32.0783 10.9027L32.0085 11.6472H30.4031C30.341 11.6472 30.2325 11.6511 30.0774 11.6589C29.9222 11.6666 29.7555 11.6744 29.5771 11.6821C29.3987 11.6899 29.2359 11.6976 29.0885 11.7054L29.0304 10.9841L30.3217 10.6933L29.6818 11.2284C29.6973 11.1121 29.7128 10.9647 29.7284 10.7864C29.7516 10.6002 29.771 10.4218 29.7865 10.2512C29.802 10.0806 29.8098 9.95651 29.8098 9.87895V8.14558C29.8098 7.89741 29.7788 7.66474 29.7167 7.44758C29.6624 7.23043 29.5616 7.05981 29.4143 6.93572C29.2669 6.80387 29.0653 6.73795 28.8093 6.73795C28.4603 6.73795 28.1579 6.90082 27.9019 7.22655C27.6537 7.54453 27.5297 7.97496 27.5297 8.51785V9.52995C27.5297 9.88671 27.5452 10.2279 27.5762 10.5537C27.615 10.8717 27.6499 11.116 27.6809 11.2866L27.0178 10.7747L28.4371 10.9027L28.3673 11.6472H26.6572C26.6029 11.6472 26.4943 11.6511 26.3314 11.6589C26.1763 11.6666 26.0018 11.6744 25.8079 11.6821C25.6218 11.6899 25.455 11.6976 25.3077 11.7054ZM35.631 11.7985C35.0493 11.7985 34.5491 11.6782 34.1303 11.4378C33.7193 11.1896 33.4013 10.8406 33.1764 10.3908C32.9592 9.94099 32.8506 9.40974 32.8506 8.79705C32.8506 8.16109 32.9592 7.61821 33.1764 7.16838C33.3935 6.71856 33.7037 6.37344 34.107 6.13302C34.5103 5.88484 34.9912 5.76075 35.5496 5.76075C36.1002 5.76075 36.55 5.8732 36.899 6.09812C37.2558 6.32303 37.5156 6.64876 37.6785 7.07532C37.8491 7.49412 37.9228 7.99435 37.8995 8.57602L37.6785 8.99482H34.2234L34.235 8.26192L36.9805 8.08742L36.3057 8.72725C36.329 8.59541 36.3484 8.46356 36.3639 8.33172C36.3794 8.19987 36.3872 8.06803 36.3872 7.93618C36.3872 7.50187 36.3096 7.16063 36.1545 6.91245C36.0072 6.66427 35.7745 6.54018 35.4565 6.54018C35.2393 6.54018 35.061 6.59835 34.9214 6.71468C34.7818 6.83102 34.6732 6.99388 34.5956 7.20328C34.5258 7.40493 34.4754 7.63372 34.4444 7.88965C34.4134 8.14558 34.3979 8.41703 34.3979 8.70398C34.3979 9.03747 34.425 9.33606 34.4793 9.59975C34.5413 9.85568 34.6344 10.0767 34.7585 10.2628C34.8826 10.449 35.0377 10.5925 35.2238 10.6933C35.41 10.7864 35.6388 10.8329 35.9102 10.8329C36.2359 10.8329 36.5384 10.7864 36.8176 10.6933C37.0968 10.5925 37.3101 10.4994 37.4574 10.4141L37.8181 11.0307C37.7328 11.1082 37.6203 11.1935 37.4807 11.2866C37.3411 11.3719 37.1782 11.4533 36.9921 11.5309C36.8137 11.6084 36.6082 11.6705 36.3755 11.717C36.1506 11.7713 35.9025 11.7985 35.631 11.7985ZM43.0377 11.7054L42.9795 11.019L44.5617 10.7514L43.9335 11.3448C43.9567 11.2362 43.98 11.0888 44.0033 10.9027C44.0265 10.7165 44.0498 10.5304 44.0731 10.3443C44.0963 10.1581 44.108 10.0147 44.108 9.91385V5.16745C44.108 5.06663 44.0963 4.93478 44.0731 4.77192C44.0576 4.60129 44.0343 4.43067 44.0033 4.26005C43.98 4.08943 43.9567 3.94983 43.9335 3.84125L45.6552 3.82962C45.6397 3.94595 45.6203 4.09718 45.597 4.28332C45.5738 4.46945 45.5505 4.67109 45.5272 4.88825C45.5117 5.09765 45.504 5.30705 45.504 5.51645V9.56485C45.504 9.77425 45.5117 9.99528 45.5272 10.2279C45.5505 10.4606 45.5738 10.6778 45.597 10.8794C45.6203 11.0811 45.6397 11.2362 45.6552 11.3448L45.0386 10.798L46.6789 10.926L46.6091 11.6472H44.8525C44.7672 11.6472 44.616 11.6511 44.3988 11.6589C44.1894 11.6666 43.9606 11.6744 43.7124 11.6821C43.472 11.6899 43.2471 11.6976 43.0377 11.7054ZM42.107 5.64442L41.3625 5.58625L41.4439 3.59695L41.6766 3.38755C41.824 3.3953 41.9868 3.40306 42.1652 3.41082C42.3436 3.41857 42.5103 3.42633 42.6654 3.43408C42.8206 3.44184 42.933 3.44572 43.0028 3.44572H46.5975C46.6673 3.44572 46.7836 3.44184 46.9465 3.43408C47.1094 3.42633 47.2839 3.41857 47.47 3.41082C47.6561 3.40306 47.8113 3.3953 47.9353 3.38755L48.1564 3.59695L48.2378 5.58625L47.5049 5.64442C47.4972 5.55911 47.4855 5.45441 47.47 5.33032C47.4545 5.20623 47.4351 5.08602 47.4118 4.96968C47.3963 4.85335 47.3808 4.76804 47.3653 4.71375L46.9698 3.75982L47.6096 4.30658C47.4933 4.29107 47.3071 4.27556 47.0512 4.26005C46.7953 4.23678 46.5393 4.22515 46.2834 4.22515H43.3518C43.1889 4.22515 43.0144 4.2329 42.8283 4.24842C42.6422 4.25617 42.4754 4.2678 42.3281 4.28332C42.1807 4.29107 42.076 4.29883 42.014 4.30658L42.6073 3.75982L42.2583 4.71375C42.235 4.79906 42.2079 4.94642 42.1768 5.15582C42.1458 5.35746 42.1226 5.52033 42.107 5.64442ZM51.9395 11.7287C51.4586 11.7287 51.0709 11.6356 50.7762 11.4495C50.4892 11.2633 50.2798 10.9996 50.148 10.6584C50.0239 10.3171 49.9618 9.90609 49.9618 9.42525V7.73842C49.9618 7.64535 49.9502 7.51738 49.9269 7.35452C49.9037 7.19165 49.8765 7.01327 49.8455 6.81938C49.8222 6.62549 49.799 6.44712 49.7757 6.28425L50.4272 6.91245L49.1475 6.67978L49.2289 5.90035H51.1833L51.416 6.12138C51.4005 6.31527 51.385 6.54018 51.3695 6.79612C51.3539 7.04429 51.3384 7.28472 51.3229 7.51738C51.3152 7.75005 51.3113 7.94006 51.3113 8.08742V9.48342C51.3113 9.84017 51.385 10.1388 51.5323 10.3792C51.6797 10.6119 51.9317 10.7282 52.2885 10.7282C52.5289 10.7282 52.7422 10.6584 52.9283 10.5188C53.1222 10.3714 53.2734 10.1698 53.382 9.91385C53.4906 9.65792 53.5449 9.36321 53.5449 9.02972V7.73842C53.5449 7.65311 53.5371 7.52902 53.5216 7.36615C53.5061 7.20328 53.4828 7.02878 53.4518 6.84265C53.4286 6.64876 53.4053 6.47426 53.382 6.31915L54.0335 6.91245L52.5793 6.67978L52.6608 5.90035H54.7664L55.0107 6.12138C54.9952 6.31527 54.9797 6.54018 54.9642 6.79612C54.9486 7.04429 54.9331 7.28472 54.9176 7.51738C54.9099 7.75005 54.906 7.94006 54.906 8.08742V9.52995C54.906 9.84793 54.9254 10.1659 54.9642 10.4839C55.0029 10.7941 55.034 11.1121 55.0572 11.4378L54.4058 10.7631L55.7552 10.9027L55.6854 11.6472H53.8008L53.6031 10.1349L53.8823 10.4141C53.7659 10.6235 53.6224 10.829 53.4518 11.0307C53.2812 11.2323 53.0757 11.399 52.8353 11.5309C52.5948 11.6627 52.2962 11.7287 51.9395 11.7287ZM56.5723 11.7054L56.5141 10.9841L57.9334 10.7165L57.247 11.3099C57.2703 11.2168 57.2935 11.0772 57.3168 10.8911C57.3478 10.7049 57.375 10.5149 57.3982 10.321C57.4215 10.1271 57.4331 9.97977 57.4331 9.87895V7.73842C57.4331 7.62208 57.4215 7.47085 57.3982 7.28472C57.375 7.09083 57.3478 6.89306 57.3168 6.69142C57.2858 6.48202 57.2586 6.30364 57.2354 6.15628L57.9217 6.91245L56.4443 6.67978L56.5374 5.90035H58.6546L58.8989 6.12138C58.8834 6.26098 58.8679 6.45099 58.8524 6.69142C58.8369 6.93184 58.8214 7.17614 58.8059 7.42432C58.7981 7.67249 58.7942 7.89353 58.7942 8.08742V9.52995C58.7942 9.88671 58.8098 10.2279 58.8408 10.5537C58.8796 10.8717 58.9145 11.116 58.9455 11.2866L58.2824 10.7747L59.7016 10.9027L59.6318 11.6472H57.9217C57.8675 11.6472 57.7589 11.6511 57.596 11.6589C57.4409 11.6666 57.2664 11.6744 57.0725 11.6821C56.8864 11.6899 56.7196 11.6976 56.5723 11.7054ZM57.8519 4.88825C57.6193 4.88825 57.437 4.81069 57.3052 4.65558C57.1811 4.49272 57.119 4.29883 57.119 4.07392C57.119 3.83349 57.1811 3.63573 57.3052 3.48062C57.437 3.3255 57.6193 3.24795 57.8519 3.24795C58.0924 3.24795 58.2746 3.32163 58.3987 3.46898C58.5306 3.60858 58.5965 3.81023 58.5965 4.07392C58.5965 4.30658 58.5306 4.50047 58.3987 4.65558C58.2746 4.81069 58.0924 4.88825 57.8519 4.88825ZM62.6206 11.8217C62.0622 11.8217 61.6706 11.6666 61.4456 11.3564C61.2207 11.0384 61.1083 10.6002 61.1083 10.0418V6.07485L61.7016 6.67978H60.2358L60.2009 6.03995C60.3327 5.99342 60.484 5.93913 60.6546 5.87708C60.833 5.80728 61.0075 5.73748 61.1781 5.66768C61.3565 5.59013 61.4999 5.52033 61.6085 5.45828L61.1083 5.93525C61.1626 5.86545 61.2246 5.76851 61.2944 5.64442C61.372 5.52033 61.4495 5.39236 61.5271 5.26052C61.6046 5.12092 61.6744 4.98907 61.7365 4.86498C61.8063 4.74089 61.8567 4.64783 61.8877 4.58578L62.4694 4.63232V10.0767C62.4694 10.3016 62.5159 10.4878 62.609 10.6351C62.7098 10.7747 62.8727 10.8445 63.0976 10.8445C63.2449 10.8445 63.3884 10.8174 63.528 10.7631C63.6754 10.701 63.815 10.6235 63.9468 10.5304L64.3191 11.147C64.0476 11.3409 63.7646 11.5037 63.4698 11.6356C63.1829 11.7597 62.8998 11.8217 62.6206 11.8217ZM62.2483 6.67978V5.90035H64.0282L63.9352 6.67978H62.2483ZM65.1609 11.7054L65.1028 10.9841L66.522 10.7165L65.8357 11.3099C65.8589 11.2168 65.8822 11.0772 65.9055 10.8911C65.9365 10.7049 65.9636 10.5149 65.9869 10.321C66.0102 10.1271 66.0218 9.97977 66.0218 9.87895V7.73842C66.0218 7.62208 66.0102 7.47085 65.9869 7.28472C65.9636 7.09083 65.9365 6.89306 65.9055 6.69142C65.8745 6.48202 65.8473 6.30364 65.824 6.15628L66.5104 6.91245L65.033 6.67978L65.126 5.90035H67.2433L67.4876 6.12138C67.4721 6.26098 67.4566 6.45099 67.4411 6.69142C67.4256 6.93184 67.4101 7.17614 67.3945 7.42432C67.3868 7.67249 67.3829 7.89353 67.3829 8.08742V9.52995C67.3829 9.88671 67.3984 10.2279 67.4295 10.5537C67.4682 10.8717 67.5031 11.116 67.5341 11.2866L66.871 10.7747L68.2903 10.9027L68.2205 11.6472H66.5104C66.4561 11.6472 66.3475 11.6511 66.1847 11.6589C66.0296 11.6666 65.8551 11.6744 65.6612 11.6821C65.475 11.6899 65.3083 11.6976 65.1609 11.7054ZM66.4406 4.88825C66.2079 4.88825 66.0257 4.81069 65.8938 4.65558C65.7698 4.49272 65.7077 4.29883 65.7077 4.07392C65.7077 3.83349 65.7698 3.63573 65.8938 3.48062C66.0257 3.3255 66.2079 3.24795 66.4406 3.24795C66.681 3.24795 66.8633 3.32163 66.9874 3.46898C67.1192 3.60858 67.1852 3.81023 67.1852 4.07392C67.1852 4.30658 67.1192 4.50047 66.9874 4.65558C66.8633 4.81069 66.681 4.88825 66.4406 4.88825ZM71.8491 11.7985C71.2442 11.7985 70.7323 11.6782 70.3135 11.4378C69.9025 11.1896 69.5884 10.8406 69.3712 10.3908C69.1618 9.93324 69.0571 9.39423 69.0571 8.77378C69.0571 8.15334 69.1618 7.61821 69.3712 7.16838C69.5884 6.71856 69.9025 6.37344 70.3135 6.13302C70.7323 5.88484 71.2442 5.76075 71.8491 5.76075C72.7565 5.76075 73.4468 6.02832 73.9199 6.56345C74.3929 7.09858 74.6295 7.83536 74.6295 8.77378C74.6295 9.39423 74.5248 9.93324 74.3154 10.3908C74.106 10.8406 73.7919 11.1896 73.3731 11.4378C72.962 11.6782 72.4541 11.7985 71.8491 11.7985ZM71.8491 10.9492C72.1593 10.9492 72.4075 10.86 72.5937 10.6817C72.7798 10.5033 72.9116 10.2512 72.9892 9.92548C73.0745 9.59975 73.1172 9.21585 73.1172 8.77378C73.1172 8.33172 73.0745 7.95169 72.9892 7.63372C72.9116 7.30798 72.7798 7.05593 72.5937 6.87755C72.4075 6.69917 72.1593 6.60998 71.8491 6.60998C71.5389 6.60998 71.2907 6.69917 71.1046 6.87755C70.9185 7.05593 70.7827 7.30798 70.6974 7.63372C70.6199 7.95169 70.5811 8.33172 70.5811 8.77378C70.5811 9.21585 70.6199 9.59975 70.6974 9.92548C70.7827 10.2512 70.9185 10.5033 71.1046 10.6817C71.2907 10.86 71.5389 10.9492 71.8491 10.9492ZM75.6923 11.7054L75.6341 10.9841L77.0534 10.7165L76.367 11.3099C76.3903 11.2168 76.4136 11.0772 76.4368 10.8911C76.4679 10.7049 76.495 10.5149 76.5183 10.321C76.5415 10.1271 76.5532 9.97977 76.5532 9.87895V7.73842C76.5532 7.62208 76.5415 7.46309 76.5183 7.26145C76.495 7.05981 76.464 6.86204 76.4252 6.66815C76.3942 6.4665 76.3709 6.32303 76.3554 6.23772L77.0418 6.91245L75.5643 6.67978L75.6574 5.90035H77.4024L77.6351 6.12138L77.891 8.08742L77.4838 7.34288C77.6312 7.03266 77.8057 6.76122 78.0073 6.52855C78.209 6.28813 78.4416 6.10199 78.7053 5.97015C78.969 5.83055 79.2676 5.76075 79.6011 5.76075C80.0742 5.76075 80.4503 5.84994 80.7295 6.02832C81.0165 6.20669 81.222 6.46651 81.3461 6.80775C81.4779 7.14899 81.5439 7.56392 81.5439 8.05252V9.52995C81.5439 9.87895 81.5633 10.2124 81.602 10.5304C81.6486 10.8406 81.6835 11.0733 81.7067 11.2284L81.0436 10.7747L82.4629 10.9027L82.3931 11.6472H80.7877C80.7257 11.6472 80.6171 11.6511 80.462 11.6589C80.3069 11.6666 80.1401 11.6744 79.9617 11.6821C79.7834 11.6899 79.6205 11.6976 79.4731 11.7054L79.415 10.9841L80.7063 10.6933L80.0664 11.2284C80.0819 11.1121 80.0975 10.9647 80.113 10.7864C80.1362 10.6002 80.1556 10.4218 80.1711 10.2512C80.1866 10.0806 80.1944 9.95651 80.1944 9.87895V8.14558C80.1944 7.89741 80.1634 7.66474 80.1013 7.44758C80.047 7.23043 79.9462 7.05981 79.7989 6.93572C79.6515 6.80387 79.4499 6.73795 79.1939 6.73795C78.8449 6.73795 78.5425 6.90082 78.2865 7.22655C78.0384 7.54453 77.9143 7.97496 77.9143 8.51785V9.52995C77.9143 9.88671 77.9298 10.2279 77.9608 10.5537C77.9996 10.8717 78.0345 11.116 78.0655 11.2866L77.4024 10.7747L78.8217 10.9027L78.7519 11.6472H77.0418C76.9875 11.6472 76.8789 11.6511 76.716 11.6589C76.5609 11.6666 76.3864 11.6744 76.1925 11.6821C76.0064 11.6899 75.8397 11.6976 75.6923 11.7054ZM85.739 11.7054L85.6808 11.019L87.0884 10.7514L86.4486 11.3448C86.4719 11.2362 86.4951 11.0927 86.5184 10.9143C86.5494 10.7282 86.5766 10.542 86.5998 10.3559C86.6231 10.162 86.6347 10.0147 86.6347 9.91385V5.16745C86.6347 5.06663 86.6231 4.93478 86.5998 4.77192C86.5843 4.60905 86.561 4.4423 86.53 4.27168C86.5068 4.09331 86.4796 3.94983 86.4486 3.84125L87.0884 4.35312L85.6924 4.12045L85.7506 3.38755C85.8902 3.3953 86.0492 3.40306 86.2276 3.41082C86.4059 3.41857 86.5766 3.42633 86.7394 3.43408C86.9023 3.44184 87.0303 3.44572 87.1233 3.44572L88.1471 3.82962C88.1315 3.94595 88.1122 4.10106 88.0889 4.29495C88.0734 4.48884 88.0579 4.69436 88.0424 4.91152C88.0268 5.12092 88.0191 5.32256 88.0191 5.51645V9.56485C88.0191 9.77425 88.0268 9.99916 88.0424 10.2396C88.0656 10.4722 88.0889 10.6894 88.1122 10.8911C88.1432 11.0849 88.1664 11.2362 88.182 11.3448L87.5654 10.798L89.1592 10.926L89.0894 11.6472H87.3793C87.2784 11.6472 87.1311 11.6511 86.9372 11.6589C86.7511 11.6666 86.5494 11.6744 86.3323 11.6821C86.1229 11.6899 85.9251 11.6976 85.739 11.7054ZM88.8916 8.36662C88.6434 8.36662 88.3797 8.36662 88.1005 8.36662C87.8213 8.35886 87.4607 8.34723 87.0186 8.33172V7.54065C87.2746 7.55616 87.5305 7.57555 87.7864 7.59882C88.0501 7.61433 88.306 7.62208 88.5542 7.62208C89.1281 7.62208 89.5818 7.47085 89.9153 7.16838C90.2566 6.86592 90.4272 6.42385 90.4272 5.84218C90.4272 5.27603 90.2721 4.85335 89.9619 4.57415C89.6594 4.28719 89.2212 4.14372 88.6473 4.14372C88.5154 4.14372 88.3565 4.14759 88.1703 4.15535C87.9842 4.1631 87.7942 4.17474 87.6003 4.19025C87.4142 4.20576 87.2552 4.22127 87.1233 4.23678V3.44572C87.4413 3.44572 87.7903 3.43796 88.1703 3.42245C88.5503 3.39918 88.8993 3.38755 89.2173 3.38755C90.0239 3.38755 90.6676 3.59695 91.1485 4.01575C91.6371 4.43455 91.8814 5.04336 91.8814 5.84218C91.8814 6.36956 91.7418 6.82326 91.4626 7.20328C91.1834 7.58331 90.8188 7.87414 90.369 8.07578C89.9192 8.26967 89.4267 8.36662 88.8916 8.36662ZM92.8185 11.7054L92.7603 10.9841L94.1912 10.7165L93.5048 11.3099C93.5281 11.2168 93.5514 11.0772 93.5746 10.8911C93.6057 10.7049 93.6328 10.5149 93.6561 10.321C93.6793 10.1271 93.691 9.97977 93.691 9.87895V4.69048C93.691 4.57415 93.6793 4.42292 93.6561 4.23678C93.6328 4.04289 93.6057 3.84513 93.5746 3.64348C93.5436 3.43408 93.5165 3.2557 93.4932 3.10835L94.1679 3.86452L92.7021 3.52715L92.7836 2.80588L94.0283 2.85242H94.9125L95.1451 3.07345C95.1374 3.21305 95.1219 3.40306 95.0986 3.64348C95.0831 3.88391 95.0715 4.12821 95.0637 4.37638C95.056 4.62456 95.0521 4.84559 95.0521 5.03948V9.52995C95.0521 9.89446 95.0676 10.2357 95.0986 10.5537C95.1374 10.8717 95.1723 11.116 95.2033 11.2866L94.5286 10.7747L95.9595 10.9027L95.8897 11.6472H94.1796C94.1253 11.6472 94.0167 11.6511 93.8538 11.6589C93.6987 11.6666 93.5242 11.6744 93.3303 11.6821C93.1442 11.6899 92.9736 11.6976 92.8185 11.7054ZM98.4421 11.7636C97.9147 11.7636 97.4959 11.624 97.1857 11.3448C96.8832 11.0578 96.732 10.6661 96.732 10.1698C96.732 9.75874 96.8561 9.41749 97.1043 9.14605C97.3602 8.86685 97.7519 8.68459 98.2792 8.59928L100.187 8.28518V8.97155L98.8376 9.21585C98.605 9.24687 98.4343 9.32831 98.3258 9.46015C98.2249 9.58424 98.1745 9.74711 98.1745 9.94875C98.1745 10.2124 98.2327 10.4141 98.349 10.5537C98.4731 10.6855 98.6554 10.7514 98.8958 10.7514C99.175 10.7514 99.4154 10.6623 99.6171 10.4839C99.8265 10.2977 99.9583 10.0612 100.013 9.77425V7.91292C100.013 7.47085 99.935 7.14899 99.7799 6.94735C99.6326 6.74571 99.3922 6.64488 99.0587 6.64488C98.9113 6.64488 98.7484 6.66427 98.5701 6.70305C98.3917 6.73407 98.2211 6.77673 98.0582 6.83102C97.9031 6.87755 97.7829 6.92408 97.6976 6.97062L98.1513 6.27262L97.9651 7.34288L97.9768 7.83148L97.1741 7.86638L97.0228 6.05158C97.2555 5.98954 97.4959 5.93913 97.7441 5.90035C98 5.85382 98.2482 5.81892 98.4886 5.79565C98.7291 5.77238 98.9462 5.76075 99.1401 5.76075C99.8769 5.76075 100.431 5.94688 100.804 6.31915C101.184 6.68366 101.374 7.24206 101.374 7.99435V9.52995C101.374 9.90222 101.393 10.2357 101.432 10.5304C101.478 10.8251 101.517 11.0578 101.548 11.2284L100.897 10.7631L102.223 10.9027L102.153 11.6472H100.257L100.059 10.1698L100.35 10.2745C100.265 10.5692 100.133 10.8329 99.9544 11.0656C99.7838 11.2905 99.5667 11.465 99.303 11.5891C99.047 11.7054 98.7601 11.7636 98.4421 11.7636ZM105.144 11.8217C104.585 11.8217 104.194 11.6666 103.969 11.3564C103.744 11.0384 103.631 10.6002 103.631 10.0418V6.07485L104.225 6.67978H102.759L102.724 6.03995C102.856 5.99342 103.007 5.93913 103.178 5.87708C103.356 5.80728 103.53 5.73748 103.701 5.66768C103.879 5.59013 104.023 5.52033 104.132 5.45828L103.631 5.93525C103.686 5.86545 103.748 5.76851 103.817 5.64442C103.895 5.52033 103.973 5.39236 104.05 5.26052C104.128 5.12092 104.197 4.98907 104.259 4.86498C104.329 4.74089 104.38 4.64783 104.411 4.58578L104.992 4.63232V10.0767C104.992 10.3016 105.039 10.4878 105.132 10.6351C105.233 10.7747 105.396 10.8445 105.621 10.8445C105.768 10.8445 105.911 10.8174 106.051 10.7631C106.198 10.701 106.338 10.6235 106.47 10.5304L106.842 11.147C106.571 11.3409 106.288 11.5037 105.993 11.6356C105.706 11.7597 105.423 11.8217 105.144 11.8217ZM104.771 6.67978V5.90035H106.551L106.458 6.67978H104.771ZM107.637 11.7054L107.579 10.9841L108.917 10.7165L108.242 11.3099C108.258 11.2168 108.281 11.0772 108.312 10.8911C108.343 10.7049 108.37 10.5149 108.394 10.321C108.417 10.1271 108.429 9.97977 108.429 9.87895V6.40058L108.603 6.67978H107.672L107.637 6.02832L108.603 5.86545L108.429 6.17955V4.81845C108.429 4.39965 108.51 4.03126 108.673 3.71328C108.843 3.38755 109.084 3.13549 109.394 2.95712C109.704 2.77874 110.077 2.68955 110.511 2.68955C110.689 2.68955 110.852 2.70118 110.999 2.72445C111.155 2.74772 111.325 2.77486 111.511 2.80588L111.325 4.62068L110.604 4.58578L110.627 4.10882C110.627 4.0235 110.616 3.89554 110.592 3.72492C110.569 3.54654 110.542 3.39918 110.511 3.28285L110.988 3.60858C110.965 3.60858 110.91 3.60083 110.825 3.58532C110.747 3.56205 110.662 3.54266 110.569 3.52715C110.484 3.51164 110.418 3.50388 110.371 3.50388C110.162 3.50388 110.003 3.56593 109.894 3.69002C109.786 3.8141 109.716 3.99248 109.685 4.22515C109.662 4.45782 109.662 4.73314 109.685 5.05112C109.708 5.36134 109.743 5.70646 109.79 6.08648L109.615 5.90035H111.209L111.127 6.67978H109.615L109.79 6.29588V9.52995C109.79 9.88671 109.805 10.2279 109.836 10.5537C109.875 10.8717 109.906 11.116 109.929 11.2866L109.266 10.7747L110.93 10.9027L110.872 11.6472H108.917C108.863 11.6472 108.758 11.6511 108.603 11.6589C108.456 11.6666 108.293 11.6744 108.114 11.6821C107.944 11.6899 107.785 11.6976 107.637 11.7054ZM114.849 11.7985C114.244 11.7985 113.732 11.6782 113.314 11.4378C112.903 11.1896 112.589 10.8406 112.371 10.3908C112.162 9.93324 112.057 9.39423 112.057 8.77378C112.057 8.15334 112.162 7.61821 112.371 7.16838C112.589 6.71856 112.903 6.37344 113.314 6.13302C113.732 5.88484 114.244 5.76075 114.849 5.76075C115.757 5.76075 116.447 6.02832 116.92 6.56345C117.393 7.09858 117.63 7.83536 117.63 8.77378C117.63 9.39423 117.525 9.93324 117.316 10.3908C117.106 10.8406 116.792 11.1896 116.373 11.4378C115.962 11.6782 115.454 11.7985 114.849 11.7985ZM114.849 10.9492C115.16 10.9492 115.408 10.86 115.594 10.6817C115.78 10.5033 115.912 10.2512 115.989 9.92548C116.075 9.59975 116.117 9.21585 116.117 8.77378C116.117 8.33172 116.075 7.95169 115.989 7.63372C115.912 7.30798 115.78 7.05593 115.594 6.87755C115.408 6.69917 115.16 6.60998 114.849 6.60998C114.539 6.60998 114.291 6.69917 114.105 6.87755C113.919 7.05593 113.783 7.30798 113.698 7.63372C113.62 7.95169 113.581 8.33172 113.581 8.77378C113.581 9.21585 113.62 9.59975 113.698 9.92548C113.783 10.2512 113.919 10.5033 114.105 10.6817C114.291 10.86 114.539 10.9492 114.849 10.9492ZM118.692 11.7054L118.634 10.9841L120.054 10.7165L119.367 11.3099C119.39 11.2168 119.414 11.0772 119.437 10.8911C119.468 10.7049 119.495 10.5149 119.518 10.321C119.542 10.1271 119.553 9.97977 119.553 9.87895V7.73842C119.553 7.62208 119.542 7.46309 119.518 7.26145C119.495 7.05981 119.464 6.86204 119.425 6.66815C119.394 6.4665 119.371 6.32303 119.356 6.23772L120.042 6.91245L118.565 6.67978L118.658 5.90035H120.403L120.635 6.12138L120.891 8.08742L120.391 7.51738C120.484 7.33125 120.585 7.14124 120.693 6.94735C120.81 6.74571 120.945 6.55957 121.101 6.38895C121.263 6.21057 121.453 6.06709 121.671 5.95852C121.896 5.84994 122.159 5.79565 122.462 5.79565C122.609 5.79565 122.756 5.80728 122.904 5.83055C123.059 5.85382 123.206 5.88096 123.346 5.91198L123.195 8.07578L122.404 8.04088V7.42432C122.404 7.39329 122.392 7.32349 122.369 7.21492C122.353 7.09858 122.33 6.97837 122.299 6.85428C122.276 6.72244 122.252 6.62549 122.229 6.56345L122.659 6.84265C122.59 6.83489 122.516 6.83102 122.438 6.83102C122.369 6.82326 122.299 6.81938 122.229 6.81938C121.841 6.81938 121.523 6.96674 121.275 7.26145C121.035 7.54841 120.914 7.96333 120.914 8.50622V9.52995C120.914 9.88671 120.93 10.2279 120.961 10.5537C121 10.8717 121.035 11.116 121.066 11.2866L120.403 10.7747L122.043 10.9027L121.985 11.6472H120.042C119.988 11.6472 119.879 11.6511 119.716 11.6589C119.561 11.6666 119.387 11.6744 119.193 11.6821C119.007 11.6899 118.84 11.6976 118.692 11.7054ZM131.332 11.7054L131.274 10.9841L132.565 10.6933L131.937 11.147C131.96 11.0307 131.979 10.8833 131.995 10.7049C132.01 10.5265 132.022 10.3598 132.03 10.2047C132.045 10.0418 132.053 9.93324 132.053 9.87895V8.14558C132.053 7.89741 132.026 7.66474 131.972 7.44758C131.917 7.23043 131.824 7.05981 131.692 6.93572C131.568 6.80387 131.394 6.73795 131.169 6.73795C130.835 6.73795 130.548 6.89306 130.308 7.20328C130.075 7.51351 129.955 7.94006 129.947 8.48295L129.505 7.36615C129.715 6.86979 129.99 6.47814 130.331 6.19118C130.672 5.90423 131.087 5.76075 131.576 5.76075C132.018 5.76075 132.371 5.84994 132.635 6.02832C132.906 6.20669 133.1 6.46651 133.216 6.80775C133.34 7.14899 133.402 7.56392 133.402 8.05252V9.52995C133.402 9.72384 133.41 9.93324 133.426 10.1581C133.449 10.3831 133.468 10.5886 133.484 10.7747C133.507 10.9531 133.523 11.0733 133.53 11.1354L132.891 10.7747L134.31 10.9027L134.252 11.6472H132.635C132.596 11.6472 132.499 11.6511 132.344 11.6589C132.189 11.6666 132.014 11.6744 131.82 11.6821C131.634 11.6899 131.471 11.6976 131.332 11.7054ZM124.282 11.7054L124.224 10.9841L125.643 10.7165L124.957 11.3099C124.98 11.2168 125.003 11.0772 125.026 10.8911C125.057 10.7049 125.085 10.5149 125.108 10.321C125.131 10.1271 125.143 9.97977 125.143 9.87895V7.73842C125.143 7.62208 125.131 7.46309 125.108 7.26145C125.085 7.05981 125.054 6.86204 125.015 6.66815C124.984 6.4665 124.961 6.32303 124.945 6.23772L125.631 6.91245L124.154 6.67978L124.247 5.90035H125.992L126.225 6.12138L126.504 8.29682V9.52995C126.504 9.88671 126.519 10.2279 126.55 10.5537C126.589 10.8717 126.624 11.116 126.655 11.2866L125.992 10.7747L127.411 10.9027L127.341 11.6472H125.631C125.577 11.6472 125.469 11.6511 125.306 11.6589C125.151 11.6666 124.976 11.6744 124.782 11.6821C124.596 11.6899 124.429 11.6976 124.282 11.7054ZM127.877 11.7054L127.818 10.9841L129.11 10.6933L128.493 11.147C128.509 11.0307 128.524 10.8833 128.54 10.7049C128.555 10.5265 128.567 10.3598 128.575 10.2047C128.59 10.0418 128.598 9.93324 128.598 9.87895V8.14558C128.598 7.89741 128.571 7.66474 128.516 7.44758C128.47 7.23043 128.381 7.05981 128.249 6.93572C128.125 6.80387 127.946 6.73795 127.714 6.73795C127.388 6.73795 127.105 6.90082 126.865 7.22655C126.632 7.54453 126.512 7.97496 126.504 8.51785L126.05 7.40105C126.19 7.07532 126.357 6.78836 126.55 6.54018C126.752 6.29201 126.985 6.10199 127.248 5.97015C127.512 5.83055 127.803 5.76075 128.121 5.76075C128.563 5.76075 128.916 5.84994 129.18 6.02832C129.451 6.20669 129.645 6.46651 129.761 6.80775C129.885 7.14899 129.947 7.56392 129.947 8.05252V9.52995C129.947 9.72384 129.955 9.93324 129.971 10.1581C129.994 10.3831 130.017 10.5886 130.04 10.7747C130.064 10.9531 130.079 11.0733 130.087 11.1354L129.447 10.7747L130.866 10.9027L130.797 11.6472H129.191C129.152 11.6472 129.055 11.6511 128.9 11.6589C128.745 11.6666 128.571 11.6744 128.377 11.6821C128.191 11.6899 128.024 11.6976 127.877 11.7054Z" fill="#A6A6A6"/>
</svg>
