<svg width="154" height="188" viewBox="0 0 154 188" fill="none" xmlns="http://www.w3.org/2000/svg">
<rect x="0.847412" y="0.875031" width="152.203" height="187.103" rx="9.69444" fill="#F2E9FF"/>
<path d="M44.729 76.4213C47.8474 73.9492 52.0322 71.5579 52.8239 72.4142C54.1326 73.8199 54.0195 87.1983 52.8239 88.4747C52.0968 89.2664 47.8797 86.8751 44.729 84.4192" stroke="#51459E" stroke-width="2.54479" stroke-linecap="round" stroke-linejoin="round"/>
<path fill-rule="evenodd" clip-rule="evenodd" d="M21.5935 80.4322C21.5935 71.6232 24.5196 68.6874 33.3012 68.6874C42.0811 68.6874 45.0072 71.6232 45.0072 80.4322C45.0072 89.2396 42.0811 92.177 33.3012 92.177C24.5196 92.177 21.5935 89.2396 21.5935 80.4322Z" stroke="#51459E" stroke-width="2.54479" stroke-linecap="round" stroke-linejoin="round"/>
<path fill-rule="evenodd" clip-rule="evenodd" d="M133.16 22.1733L135.646 19.6924C135.873 19.4656 135.873 19.098 135.646 18.8712C135.42 18.6445 135.052 18.6445 134.825 18.8712L132.345 21.3579L129.864 18.8712C129.637 18.6445 129.27 18.6445 129.043 18.8712C128.816 19.098 128.816 19.4656 129.043 19.6924L131.529 22.1733L129.043 24.6542C128.934 24.7628 128.872 24.9106 128.872 25.0648C128.872 25.219 128.934 25.3668 129.043 25.4754C129.152 25.5848 129.299 25.6464 129.454 25.6464C129.608 25.6464 129.756 25.5848 129.864 25.4754L132.345 22.9887L134.825 25.4754C134.934 25.5848 135.082 25.6464 135.236 25.6464C135.39 25.6464 135.538 25.5848 135.646 25.4754C135.756 25.3668 135.817 25.219 135.817 25.0648C135.817 24.9106 135.756 24.7628 135.646 24.6542L133.16 22.1733Z" fill="#11243D"/>
<path d="M27.5942 139.056L23.1793 127.261C23.0656 126.977 22.9305 126.685 22.7741 126.387C22.6177 126.074 22.4684 125.79 22.3262 125.534C22.184 125.278 22.0703 125.093 21.985 124.979L23.3499 125.79L21.1745 125.257L21.2811 123.913C21.5371 123.927 21.8143 123.948 22.1129 123.977C22.4257 123.991 22.7172 124.005 22.9874 124.02C23.2717 124.02 23.4992 124.02 23.6699 124.02C24.1959 124.02 24.7647 124.012 25.3761 123.998C25.9875 123.97 26.5847 123.941 27.1676 123.913L27.2743 125.363L24.459 125.662L25.3548 124.83C25.3832 125.043 25.433 125.335 25.504 125.704C25.5894 126.074 25.6818 126.465 25.7813 126.877C25.8951 127.276 26.0017 127.61 26.1012 127.88L29.0871 136.304H28.426L31.5611 127.069C31.6322 126.885 31.6962 126.65 31.7531 126.366C31.8242 126.081 31.8739 125.804 31.9024 125.534C31.945 125.249 31.9735 125.029 31.9877 124.873L32.7342 125.704L30.1748 125.257L30.2815 123.913C30.6654 123.927 31.0777 123.948 31.5185 123.977C31.9593 124.005 32.2863 124.02 32.4996 124.02C32.9403 124.02 33.4238 124.012 33.9498 123.998C34.4759 123.97 34.9878 123.941 35.4854 123.913L35.5708 125.363L33.502 125.598L34.8883 124.894C34.803 125.036 34.6679 125.264 34.483 125.576C34.3124 125.889 34.1347 126.238 33.9498 126.621C33.765 127.005 33.6015 127.382 33.4593 127.752L29.407 139.056H27.5942ZM36.8589 139.162L36.7523 137.84L39.3543 137.349L38.0959 138.437C38.1386 138.266 38.1812 138.011 38.2239 137.669C38.2808 137.328 38.3305 136.98 38.3732 136.624C38.4159 136.269 38.4372 135.999 38.4372 135.814V131.889C38.4372 131.676 38.4159 131.399 38.3732 131.058C38.3305 130.702 38.2808 130.34 38.2239 129.97C38.167 129.586 38.1173 129.259 38.0746 128.989L39.3329 130.375L36.6243 129.949L36.7949 128.52H40.6766L41.1245 128.925C41.096 129.181 41.0676 129.529 41.0392 129.97C41.0107 130.411 40.9823 130.859 40.9539 131.314C40.9396 131.769 40.9325 132.174 40.9325 132.529V135.174C40.9325 135.828 40.961 136.454 41.0178 137.051C41.0889 137.634 41.1529 138.082 41.2098 138.394L39.9941 137.456L42.5961 137.691L42.4681 139.056H39.3329C39.2334 139.056 39.0344 139.063 38.7358 139.077C38.4514 139.091 38.1315 139.105 37.776 139.12C37.4348 139.134 37.1291 139.148 36.8589 139.162ZM39.205 126.664C38.7784 126.664 38.4443 126.522 38.2026 126.238C37.9751 125.939 37.8613 125.584 37.8613 125.171C37.8613 124.73 37.9751 124.368 38.2026 124.083C38.4443 123.799 38.7784 123.657 39.205 123.657C39.6458 123.657 39.9799 123.792 40.2074 124.062C40.4491 124.318 40.57 124.688 40.57 125.171C40.57 125.598 40.4491 125.953 40.2074 126.238C39.9799 126.522 39.6458 126.664 39.205 126.664ZM48.1821 139.269C46.8883 139.269 45.8716 138.793 45.1323 137.84C44.4071 136.887 44.0446 135.558 44.0446 133.852C44.0446 132.089 44.4853 130.716 45.3669 129.735C46.2484 128.754 47.4712 128.264 49.0353 128.264C49.3054 128.264 49.5684 128.278 49.8244 128.306C50.0803 128.321 50.3434 128.356 50.6135 128.413C50.8979 128.456 51.2107 128.527 51.5519 128.626L51.5306 130.652C51.104 130.397 50.7059 130.219 50.3362 130.119C49.9666 130.02 49.6182 129.97 49.2912 129.97C48.4665 129.97 47.848 130.283 47.4357 130.908C47.0375 131.52 46.8385 132.451 46.8385 133.702C46.8385 134.868 47.0162 135.757 47.3717 136.368C47.7414 136.98 48.2675 137.285 48.9499 137.285C49.6324 137.285 50.1585 137.029 50.5282 136.518C50.9121 136.006 51.1254 135.273 51.168 134.321V126.28C51.168 126.081 51.1467 125.818 51.104 125.491C51.0614 125.15 51.0116 124.823 50.9548 124.51C50.8979 124.197 50.8552 123.984 50.8268 123.87L52.0211 124.766L49.2272 124.169L49.3978 122.846L51.7652 122.932H53.4074L53.8127 123.337C53.7985 123.692 53.7771 124.105 53.7487 124.574C53.7203 125.029 53.6918 125.47 53.6634 125.896C53.6492 126.323 53.6421 126.664 53.6421 126.92V135.174C53.6421 135.842 53.6776 136.454 53.7487 137.008C53.834 137.548 53.9051 137.982 53.962 138.309L52.725 137.435L55.199 137.691L55.071 139.056H51.5946L51.2533 136.304L51.7652 136.646C51.6088 137.058 51.4026 137.428 51.1467 137.755C50.905 138.067 50.6277 138.338 50.3149 138.565C50.0021 138.793 49.668 138.963 49.3125 139.077C48.957 139.205 48.5803 139.269 48.1821 139.269ZM61.721 139.333C60.6546 139.333 59.7375 139.112 58.9697 138.672C58.2161 138.217 57.6331 137.577 57.2208 136.752C56.8227 135.928 56.6236 134.954 56.6236 133.83C56.6236 132.664 56.8227 131.669 57.2208 130.844C57.6189 130.02 58.1876 129.387 58.927 128.946C59.6664 128.491 60.5479 128.264 61.5717 128.264C62.5812 128.264 63.4058 128.47 64.0457 128.882C64.6997 129.295 65.1761 129.892 65.4746 130.674C65.7874 131.442 65.9225 132.359 65.8799 133.425L65.4746 134.193H59.1403L59.1616 132.849L64.195 132.529L62.958 133.702C63.0006 133.461 63.0362 133.219 63.0646 132.977C63.093 132.735 63.1073 132.494 63.1073 132.252C63.1073 131.456 62.9651 130.83 62.6807 130.375C62.4105 129.92 61.984 129.693 61.401 129.693C61.0029 129.693 60.6759 129.799 60.42 130.013C60.164 130.226 59.965 130.524 59.8228 130.908C59.6948 131.278 59.6024 131.698 59.5455 132.167C59.4886 132.636 59.4602 133.134 59.4602 133.66C59.4602 134.271 59.51 134.818 59.6095 135.302C59.7232 135.771 59.8939 136.176 60.1214 136.518C60.3489 136.859 60.6332 137.122 60.9745 137.307C61.3157 137.477 61.7352 137.563 62.2328 137.563C62.83 137.563 63.3845 137.477 63.8964 137.307C64.4083 137.122 64.7993 136.951 65.0694 136.795L65.7306 137.925C65.5742 138.067 65.368 138.224 65.1121 138.394C64.8561 138.551 64.5575 138.7 64.2163 138.842C63.8893 138.985 63.5125 139.098 63.0859 139.184C62.6736 139.283 62.2186 139.333 61.721 139.333ZM72.8852 139.333C71.7762 139.333 70.8377 139.112 70.0699 138.672C69.3164 138.217 68.7405 137.577 68.3424 136.752C67.9585 135.913 67.7665 134.925 67.7665 133.788C67.7665 132.65 67.9585 131.669 68.3424 130.844C68.7405 130.02 69.3164 129.387 70.0699 128.946C70.8377 128.491 71.7762 128.264 72.8852 128.264C74.5488 128.264 75.8142 128.754 76.6816 129.735C77.5489 130.716 77.9825 132.067 77.9825 133.788C77.9825 134.925 77.7906 135.913 77.4067 136.752C77.0228 137.577 76.4469 138.217 75.6791 138.672C74.9256 139.112 73.9943 139.333 72.8852 139.333ZM72.8852 137.776C73.4539 137.776 73.9089 137.612 74.2502 137.285C74.5914 136.958 74.8331 136.496 74.9753 135.899C75.1317 135.302 75.2099 134.598 75.2099 133.788C75.2099 132.977 75.1317 132.28 74.9753 131.698C74.8331 131.1 74.5914 130.638 74.2502 130.311C73.9089 129.984 73.4539 129.821 72.8852 129.821C72.3165 129.821 71.8615 129.984 71.5202 130.311C71.179 130.638 70.9302 131.1 70.7738 131.698C70.6316 132.28 70.5605 132.977 70.5605 133.788C70.5605 134.598 70.6316 135.302 70.7738 135.899C70.9302 136.496 71.179 136.958 71.5202 137.285C71.8615 137.612 72.3165 137.776 72.8852 137.776Z" fill="#51459E"/>
</svg>
